<?xml version="1.0" encoding="UTF-8" standalone="no"?>
<!-- Created with Inkscape (http://www.inkscape.org/) -->

<svg
   width="210mm"
   height="297mm"
   viewBox="0 0 210 297"
   version="1.1"
   id="svg1"
   inkscape:version="1.3 (0e150ed, 2023-07-21)"
   sodipodi:docname="diba.svg"
   inkscape:export-filename="diba.png"
   inkscape:export-xdpi="96"
   inkscape:export-ydpi="96"
   xmlns:inkscape="http://www.inkscape.org/namespaces/inkscape"
   xmlns:sodipodi="http://sodipodi.sourceforge.net/DTD/sodipodi-0.dtd"
   xmlns="http://www.w3.org/2000/svg"
   xmlns:svg="http://www.w3.org/2000/svg">
  <sodipodi:namedview
     id="namedview1"
     pagecolor="#ffffff"
     bordercolor="#000000"
     borderopacity="0.25"
     inkscape:showpageshadow="2"
     inkscape:pageopacity="0.0"
     inkscape:pagecheckerboard="0"
     inkscape:deskcolor="#d1d1d1"
     inkscape:document-units="mm"
     showgrid="false"
     inkscape:zoom="0.76257015"
     inkscape:cx="397.3405"
     inkscape:cy="561.25984"
     inkscape:window-width="1392"
     inkscape:window-height="1027"
     inkscape:window-x="0"
     inkscape:window-y="25"
     inkscape:window-maximized="0"
     inkscape:current-layer="layer1" />
  <defs
     id="defs1">
    <inkscape:path-effect
       effect="bend_path"
       id="path-effect1"
       is_visible="true"
       lpeversion="1"
       bendpath="m 201.90358,345.02913 c 66.78563,114.5088 66.69843,115.55104 135.07392,9.17948"
       prop_scale="1"
       scale_y_rel="false"
       vertical="false"
       hide_knot="false"
       bendpath-nodetypes="cc" />
    <rect
       x="116.71057"
       y="347.50901"
       width="468.15365"
       height="284.56399"
       id="rect1" />
  </defs>
  <g
     inkscape:label="Layer 1"
     inkscape:groupmode="layer"
     id="layer1">
    <path
       d="m 230.41464,375.30093 c 1.00537,-0.60488 1.89957,-1.39456 2.68362,-2.36764 0.81176,-0.92699 1.35276,-2.09786 1.62487,-3.51204 0.29972,-1.36823 0.24812,-2.96216 -0.15322,-4.78466 -0.40136,-1.82256 -1.31286,-3.93524 -2.73394,-6.34612 -0.30066,-0.51007 -0.58315,-0.9373 -0.84767,-1.28164 -0.23719,-0.29789 -0.66754,-0.451 -1.29121,-0.45953 -2.47482,-0.10756 -5.17967,-0.18154 -8.10734,-0.22224 -2.92855,-0.0407 -5.90554,-0.059 -8.92837,-0.0532 -2.9977,0.0527 -5.91706,0.12253 -8.76883,0.21165 -2.80531,0.0622 -5.30313,0.16687 -7.5021,0.31542 -0.47809,0.027 -0.8093,0.0942 -0.99362,0.20167 -0.27647,0.16112 -0.47088,0.46311 -0.58315,0.90599 -0.36417,1.28164 -0.35658,2.72479 0.024,4.32996 0.40798,1.65226 1.0383,3.20833 1.89129,4.66768 1.67845,2.8716 3.81998,5.25875 6.42074,7.15253 2.60113,1.89405 5.416,3.24696 8.44013,4.05402 3.07045,0.77992 6.22182,0.9598 9.45458,0.54251 3.27858,-0.44474 6.39947,-1.56702 9.37026,-3.35437 z m -41.80535,-22.63577 c 1.00004,0.23261 2.01895,0.39197 3.05677,0.47786 1.08403,0.059 1.96116,0.0817 2.6322,0.0677 0.62445,0.0129 1.74164,0.022 3.34958,0.0278 1.68004,0.0258 3.6043,0.0384 5.76254,0.0372 2.23284,0.0189 4.57308,0.007 7.01725,-0.0355 2.51305,-0.0229 4.92142,-0.0402 7.19453,-0.0524 2.27891,-0.0122 4.32549,-0.0491 6.1443,-0.11005 1.86322,-0.0878 3.2374,-0.17194 4.11783,-0.25012 0.13806,-0.0809 0.18916,-0.20467 0.15331,-0.3714 -0.0359,-0.16674 -0.0811,-0.29671 -0.13563,-0.38992 -0.87319,-1.4913 -1.87064,-2.88089 -2.99302,-4.1687 -1.12241,-1.28781 -2.14362,-2.66839 -3.06397,-4.14131 -0.49182,-0.84371 -0.36917,-1.4807 0.36809,-1.91038 0.0922,-0.0537 0.29014,-0.13768 0.59395,-0.25192 0.30381,-0.11424 0.49671,-0.10102 0.57869,0.0396 0.0546,0.0938 0.12137,0.52599 0.20001,1.29632 0.10595,0.81716 0.35003,1.55343 0.73222,2.20872 0.49085,0.84157 1.15634,1.92935 1.99304,3.2561 0.88353,1.30103 1.65711,2.41239 2.32227,3.33718 0.72843,1.13839 1.44211,2.25009 2.14357,3.33879 0.7011,1.08816 1.39299,2.21128 2.0762,3.36951 1.06574,1.80674 2.00427,3.65374 2.81701,5.54206 0.84013,1.93436 1.33056,3.79407 1.47163,5.58375 0.16861,1.83541 -0.1218,3.57404 -0.87228,5.21876 -0.0972,0.23864 -0.20844,0.473 -0.33383,0.70306 0,0 0,0 0,0 -0.7459,1.37481 -1.99857,2.5968 -3.756,3.66212 -1.83465,1.11212 -3.89518,1.89809 -6.1847,2.35302 0,0 0,0 0,0 -0.10134,0.0202 -0.20312,0.0397 -0.30535,0.0585 -2.33788,0.46353 -4.73994,0.61187 -7.20745,0.44137 -2.42174,-0.19798 -4.81034,-0.70902 -7.16503,-1.53359 -2.32641,-0.77749 -4.41045,-1.83237 -6.24944,-3.16066 -1.839,-1.3283 -3.48767,-2.86559 -4.94452,-4.60871 -1.47521,-1.66903 -2.79083,-3.49326 -3.94668,-5.47075 -0.93564,-1.60076 -1.71295,-3.19733 -2.33254,-4.78908 -0.66572,-1.56502 -1.03991,-3.26639 -1.12322,-5.10428 -0.0431,-0.60367 -0.16036,-1.06968 -0.35176,-1.39812 -0.21871,-0.37534 -0.69442,-0.82091 -1.42687,-1.33623 -0.73246,-0.51532 -1.54328,-0.95312 -2.43243,-1.31331 0.0333,-0.20768 0.0665,-0.41535 0.0997,-0.62302 z m 36.1899,59.66802 c 0.3007,0.34901 0.67463,0.61417 1.12071,0.79449 0.47838,0.22757 0.93069,0.36796 1.3562,0.42173 1.04066,0.11018 2.53848,0.19422 4.44749,0.22965 1.3001,0.0546 2.68262,0.0731 4.14236,0.0511 0.72259,-0.0126 1.46765,-0.0338 2.23218,-0.0648 2.32634,-0.048 4.78144,-0.16116 7.29559,-0.37473 2.53037,-0.21494 4.89729,-0.50405 7.14147,-0.87877 2.28234,-0.40782 4.28841,-0.90434 6.06233,-1.46085 1.79223,-0.51793 3.16174,-1.08337 4.1124,-1.60727 0.29252,-0.15184 0.53694,-0.31877 0.73363,-0.49809 0.43536,-0.39688 0.27942,-0.99655 -0.45175,-1.86583 -0.32752,-0.38939 -0.71845,-0.82167 -1.17472,-1.304 -0.45686,-0.48296 -0.93079,-0.9131 -1.42461,-1.28725 -0.0214,-0.0711 -0.0428,-0.14226 -0.0642,-0.21354 0.39322,-0.19043 0.72982,-0.27964 1.00909,-0.2688 1.25888,1.44233 2.43867,2.71767 3.58422,3.83504 1.2094,1.10896 2.27099,1.84928 3.20681,2.31797 0.0224,0.23214 -0.054,0.44764 -0.23172,0.64583 -0.0708,0.079 -0.22198,0.0909 -0.45348,0.0277 -0.28511,-0.11053 -0.62192,-0.0953 -1.01365,0.0485 -0.39164,0.14374 -0.82376,0.3203 -1.2972,0.52821 -2.04044,0.92233 -4.39197,1.80444 -7.13434,2.59544 -2.71357,0.82657 -5.62913,1.49749 -8.79766,2.02533 -3.12311,0.49325 -6.32244,0.81002 -9.59486,1.00477 -3.05075,0.2261 -5.99858,0.32859 -8.70115,0.36211 -0.14603,0.001 -0.29161,0.002 -0.43675,0.003 -0.74435,-0.0319 -1.41431,-0.19127 -2.00828,-0.47711 -0.59385,-0.28579 -1.08336,-0.61188 -1.46764,-0.97609 -0.45027,-0.45875 -0.88798,-0.99638 -1.31123,-1.61208 -0.46709,-0.58537 -0.83883,-1.13103 -1.11605,-1.63499 -0.0202,-0.12476 0.0582,-0.24688 0.2348,-0.36643 z m 51.28297,-5.81951 c 1.2835,-1.41988 2.45432,-2.67833 3.67954,-3.85327 0.47495,-0.48763 0.94946,-0.92872 1.42257,-1.32015 0.66884,-0.57425 1.31534,-1.0276 1.94417,-1.35656 1.08112,-0.58808 2.1249,-0.84756 3.13796,-0.7625 1.0424,0.0453 2.13873,0.49902 3.28163,1.37403 0.59228,0.45345 1.18309,1.13086 1.76508,2.035 0.58188,0.90398 1.00373,2.0176 1.25237,3.34162 0.23872,1.24889 0.26957,2.71725 0.0724,4.39516 -0.0131,0.0899 -0.0272,0.18026 -0.0425,0.27098 -0.2759,1.5659 -0.86881,3.26836 -1.8056,5.03933 -0.0695,0.0801 -0.0439,0.17277 0.0771,0.2782 0.0807,0.0703 0.15595,0.0653 0.2258,-0.0151 0.50594,-0.3795 1.53595,-1.14976 2.0419,-1.52926 0.71008,-0.59714 1.50613,-1.05847 2.39195,-1.38358 0,0 0.001,-4.6e-4 0.001,-4.6e-4 0.84209,-0.35795 1.72261,-0.51823 2.64552,-0.4787 0.91472,-0.0363 1.85593,0.32114 2.81785,1.08136 1.17032,0.92492 2.10848,2.19399 2.78633,3.82171 0.35795,0.89702 0.60559,1.86296 0.73753,2.89837 0.11295,0.80219 0.15638,1.65084 0.12189,2.54424 -0.0421,1.98856 -0.54698,4.20197 -1.65485,6.59732 -1.10376,2.31081 -2.90638,4.7043 -5.51342,7.02148 -1.51069,1.34272 -3.33716,2.65275 -5.46975,3.85015 -0.43285,0.25551 -0.86989,0.49537 -1.31018,0.71917 -1.76479,0.9109 -3.68817,1.54252 -5.64878,1.86911 -0.62834,0.0789 -1.19956,0.17444 -1.71658,0.29283 -0.53958,0.07 -0.97004,0.16801 -1.29493,0.30379 -0.57754,0.24136 -1.33037,0.7171 -2.45197,1.44444 0,0 0,1e-5 0,1e-5 -0.17704,0.1114 -0.36315,0.22788 -0.55687,0.34777 -1.44434,0.89386 -2.87575,1.72636 -4.23612,2.51685 -0.33213,-0.0858 -0.66228,-0.17658 -0.99025,-0.27224 1.23258,-0.88013 1.98548,-1.61867 2.28231,-1.98492 0.3999,-0.46079 0.69953,-0.86465 0.90718,-1.18825 0.56088,-0.88609 1.06411,-1.80261 1.50765,-2.74493 0.41884,-0.92568 0.77866,-1.86236 1.082,-2.81076 0.58927,-1.95339 0.88472,-3.82794 0.99694,-5.57302 0.14126,-1.81844 0.0989,-3.5373 -0.032,-5.09573 -0.0511,-0.72154 -0.11845,-1.40863 -0.19268,-2.04913 -0.0913,-0.81621 -0.19473,-1.57631 -0.30007,-2.27038 -0.21268,-1.03094 -0.45723,-2.17529 -0.75647,-3.43027 -0.29632,-1.32338 -0.67433,-2.63602 -1.12294,-3.93623 -0.41603,-1.32602 -0.88989,-2.59413 -1.39894,-3.7949 -0.51352,-1.26124 -1.02158,-2.39508 -1.47995,-3.35968 -0.0473,-0.10395 -0.12686,-0.21287 -0.23874,-0.32724 -0.112,-0.1145 -0.24845,-0.0887 -0.40864,0.0717 -0.37492,0.37553 -0.74382,0.80659 -1.11821,1.28981 -0.3729,0.48131 -0.71498,0.94487 -1.0302,1.39323 -0.3494,0.40807 -0.67252,0.76754 -0.97549,1.09168 -0.0724,0.0775 -0.14238,0.1484 -0.20971,0.21299 0,0 0,0 0,0 -0.18715,0.18559 -0.33221,0.31173 -0.45423,0.38743 -0.31708,0.19672 -0.57009,0.0406 -0.83795,-0.42151 -0.2902,-0.50065 -0.48316,-0.9352 -0.56028,-1.25532 0.0287,-0.0181 0.0927,0.0363 0.19193,0.16321 0.11468,0.11718 0.23469,0.16824 0.37067,0.14717 0.0923,-0.0192 0.2371,-0.0827 0.46987,-0.20563 0.18128,-0.10025 0.39906,-0.2342 0.65044,-0.40879 0.78964,-0.54843 1.53469,-1.21613 2.21694,-1.92613 0.61038,-0.70203 1.62878,-1.8277 2.72966,-3.04556 z m 10.64849,-3.47806 c -0.79299,-0.63032 -1.56575,-0.98689 -2.31396,-1.07636 -0.78986,-0.12277 -1.53036,-0.0539 -2.22324,0.20327 0,0 -0.001,3.9e-4 -0.001,3.9e-4 -0.71795,0.26356 -1.37124,0.65736 -1.95597,1.17542 -0.62579,0.48381 -1.17566,1.00113 -1.65387,1.55313 -0.32874,0.37947 -0.57666,0.78572 -0.74821,1.2232 -0.18222,0.36861 -0.19414,0.82456 -0.0425,1.37541 0.23355,0.86352 0.56159,1.84383 0.97605,2.96673 0.40539,1.05345 0.76938,2.05476 1.09739,3.01542 1.16859,3.21731 2.40677,7.02503 3.29376,11.22655 0.47773,2.2629 0.83694,4.59611 1.04345,7.01303 0.17072,2.14188 0.18817,4.35595 -0.0356,6.62907 -0.0595,0.64557 -0.0353,1.17288 0.0999,1.58622 0.15224,0.2816 0.51419,0.54408 1.09486,0.77216 0.57979,0.22774 1.37718,0.33222 2.36791,0.28369 0.74796,-0.0984 1.57827,-0.30331 2.45901,-0.62303 0.31974,-0.11231 0.6494,-0.23936 0.98825,-0.38135 1.24259,-0.52071 2.63803,-1.39576 4.09513,-2.62117 1.80152,-1.58465 3.24589,-3.39385 4.31761,-5.36561 1.07884,-2.05311 1.69753,-4.07591 1.93118,-6.03604 0.19343,-1.99412 -0.055,-3.84134 -0.66459,-5.53043 -0.61505,-1.76883 -1.64937,-3.22133 -3.04841,-4.37 -1.19725,-0.98299 -2.48511,-1.25887 -3.8642,-0.86156 -1.42919,0.36533 -2.85379,1.31453 -4.36511,2.81188 -0.50099,0.54908 -0.97834,1.21773 -1.45119,2.01205 -0.51062,0.75625 -1.01859,1.37008 -1.51285,1.84389 -0.1508,0.0708 -0.28277,0.12261 -0.39548,0.15596 -0.11137,-0.0415 -0.27612,-0.1786 -0.49522,-0.41143 -0.18248,-0.19389 -0.27205,-0.40243 -0.27051,-0.62448 -0.0351,-0.26091 0.0386,-0.47921 0.222,-0.6578 0.40374,-0.39313 0.84086,-0.71818 1.31722,-0.97662 0.4763,-0.25841 0.91315,-0.5991 1.30643,-1.01951 0.32184,-0.34403 0.65759,-0.74803 1.00566,-1.21355 0.34329,-0.53987 0.59255,-1.02502 0.74932,-1.44739 0.30312,-0.99623 0.49497,-2.04462 0.58027,-3.14145 0.0782,-1.1706 -0.002,-2.32941 -0.23229,-3.46928 -0.0168,-0.0833 -0.0347,-0.16628 -0.0535,-0.24897 0,0 0,0 0,0 -0.24882,-1.04722 -0.66157,-2.04342 -1.23336,-2.98957 -0.5849,-1.06115 -1.38232,-1.98544 -2.38429,-2.78187 z m 35.47262,-28.92877 c 0.29771,0.1292 0.69147,-0.0353 1.18091,-0.49421 0.48942,-0.45885 0.99316,-1.03818 1.51086,-1.73805 0.54727,-0.74544 1.08641,-1.52856 1.61745,-2.34937 0.13288,-0.20539 1.19372,-1.8473 1.3266,-2.05268 0.94344,-1.4613 1.72906,-2.63182 2.3628,-3.51746 0.58816,-0.9135 1.04425,-1.52406 1.36913,-1.83193 0.42843,-0.3703 0.65731,-0.57836 0.68669,-0.62405 0.0139,-0.12023 -0.10679,-0.327 -0.36207,-0.62029 -0.77977,-0.75966 -1.84416,-1.76677 -3.19345,-3.02137 -1.34926,-1.25457 -2.69862,-2.509 -4.04805,-3.76336 -1.34921,-1.25416 -2.52655,-2.33342 -3.53069,-3.23669 -1.01993,-0.97799 -1.60486,-1.54736 -1.75503,-1.7084 -0.30027,-0.32198 -0.47975,-0.43731 -0.53844,-0.34598 -0.10356,0.0625 -0.13811,0.3629 -0.10358,0.90106 0.002,0.19459 0.0665,0.78443 0.19435,1.76911 0.0831,0.9574 0.20571,2.19323 0.36834,3.71652 0.1911,1.471 0.40047,3.12882 0.62322,4.94252 0.20792,1.7446 0.43726,3.5033 0.6873,5.27731 0.23461,1.6991 0.48949,3.31714 0.76429,4.85221 0.27487,1.53541 0.55419,2.81732 0.83937,3.84511 z m 4.55101,28.45343 c -0.76355,-0.58528 -1.26674,-1.36365 -1.51372,-2.33251 -0.26002,-1.04393 -0.51003,-2.34521 -0.75331,-3.89663 -5e-4,-0.003 -0.0679,-0.46407 -0.0684,-0.4675 -1.99503,-13.87886 -3.74929,-24.82492 -4.8862,-33.07742 -1.20216,-8.42797 -1.83615,-13.59013 -1.90106,-15.81798 0.0105,-0.50958 0.16093,-1.18773 0.45171,-2.03477 0.29082,-0.84713 0.39018,-1.49484 0.29758,-1.94257 -0.0926,-0.44774 -0.0267,-0.59954 0.19764,-0.45537 0.20891,0.0696 0.37364,0.20781 0.49422,0.41475 0.37856,0.89046 0.92845,1.76119 1.64936,2.61234 0.67602,0.82229 1.27645,1.46661 1.80093,1.93284 0.14999,0.16095 0.66775,0.68758 1.55276,1.57919 -0.132,-0.12404 3.39319,3.18819 3.26119,3.06416 1.26044,1.19753 2.63848,2.50212 4.1388,3.91831 1.48406,1.34093 2.92314,2.65299 4.31739,3.93637 1.34928,1.25447 2.59345,2.377 3.73216,3.3672 1.12337,0.91577 1.9169,1.55498 2.38113,1.91798 0.76276,0.49021 1.41254,0.81087 1.94942,0.96199 0.52139,0.0765 0.96774,0.0725 1.33903,-0.012 0.32641,-0.11335 0.5855,-0.26993 0.77725,-0.46971 0.19175,-0.19979 0.33167,-0.36823 0.41977,-0.50537 0.14684,-0.22856 0.30059,-0.5172 0.46121,-0.86589 0.11575,-0.37751 0.24614,-0.77782 0.39115,-1.20085 0.14501,-0.42302 0.28479,-0.59123 0.41939,-0.50473 0.16394,0.0408 0.17344,0.27272 0.0284,0.69571 -0.0726,0.2117 -0.20277,0.61151 -0.39112,1.2008 -0.15884,0.54307 -0.35434,1.19311 -0.58609,1.9483 -0.20246,0.70975 -0.41986,1.4428 -0.65224,2.19888 -0.24785,0.68157 -0.47424,1.28021 -0.6791,1.79599 -0.44185,0.68706 -1.18532,0.8568 -2.22974,0.50863 -0.23914,-0.21856 -0.74176,-0.67183 -1.50508,-1.3571 -0.80866,-0.71457 -1.66222,-1.4579 -2.56072,-2.23 -0.86901,-0.81781 -1.68569,-1.56947 -2.4497,-2.25479 -0.80887,-0.71418 -1.34804,-1.15785 -1.61714,-1.33091 -0.49346,-0.31735 -1.14857,-0.38323 -1.96538,-0.19794 -0.83229,0.11074 -1.65445,0.55079 -2.46703,1.31991 -0.29573,0.26208 -0.75988,0.83511 -1.39371,1.71943 -0.63419,0.88482 -1.3628,1.96449 -2.18954,3.24225 -0.85676,1.32415 -1.69732,2.62032 -2.52751,3.89697 -0.87379,1.24588 -1.56469,2.158 -2.06967,2.73606 0.82152,5.45818 1.70481,10.24356 2.65362,14.29199 0.62406,2.55131 1.22121,4.76523 1.79815,6.63792 0.33318,1.06983 0.65935,2.02953 0.97908,2.87644 0.32809,0.75488 0.65025,1.3741 0.96804,1.85716 0.39295,0.46673 0.93382,1.0005 1.6225,1.6011 0.20268,0.27179 0.17524,0.45548 -0.0825,0.55086 -1.19802,-0.60918 -2.39572,-1.219 -3.59306,-1.82951 z"
       id="text1"
       style="font-size:32px;font-family:Zapfino;-inkscape-font-specification:Zapfino;letter-spacing:24px;word-spacing:0px;white-space:pre;fill:#bbc040;fill-opacity:0.188235"
       transform="scale(0.26458333)"
       aria-label="DIBA"
       inkscape:path-effect="#path-effect1"
       inkscape:original-d="m 161.91094,344.97952 q 0,-1.76 -0.64,-3.52 -0.56,-1.76 -2.16,-3.2 -1.52,-1.44 -4.16,-2.32 -2.64,-0.88 -6.8,-0.88 -0.88,0 -1.52,0.08 -0.56,0.08 -1.04,0.88 -2,3.12 -4.24,6.88 -2.24,3.76 -4.48,7.68 -2.16,3.92 -4.16,7.68 -2,3.68 -3.44,6.64 -0.32,0.64 -0.32,0.96 0,0.48 0.48,0.96 1.36,1.44 3.68,2.16 2.4,0.72 4.88,0.72 4.88,0 9.2,-1.92 4.32,-1.92 7.6,-5.2 3.28,-3.36 5.2,-7.84 1.92,-4.56 1.92,-9.76 z m -40,24.56 q 1.04,-1.12 1.92,-2.4 0.88,-1.36 1.36,-2.24 0.48,-0.8 1.68,-2.88 1.28,-2.16 2.88,-4.96 1.68,-2.88 3.44,-6.08 1.84,-3.28 3.52,-6.24 1.68,-2.96 2.96,-5.36 1.28,-2.48 1.84,-3.68 0,-0.24 -0.24,-0.32 -0.24,-0.08 -0.4,-0.08 -2.56,0 -5.04,0.48 -2.48,0.48 -5.04,0.56 -1.44,0 -1.44,-1.28 0,-0.16 0.08,-0.64 0.08,-0.48 0.32,-0.48 0.16,0 1.2,0.48 1.12,0.48 2.24,0.48 1.44,0 3.76,-0.08 2.32,-0.16 4,-0.32 2,-0.08 3.92,-0.16 1.92,-0.08 3.92,-0.08 3.12,0 6.16,0.4 3.12,0.4 5.52,1.6 2.48,1.2 4,3.44 1.6,2.16 1.6,5.76 0,3.36 -1.28,6.8 -1.2,3.36 -3.28,6.4 -2.08,2.96 -4.88,5.36 -2.72,2.4 -5.76,3.76 -3.04,1.36 -6.32,1.92 -3.2,0.64 -6.56,0.64 -2.72,0 -5.2,-0.4 -2.48,-0.32 -4.88,-1.6 -0.8,-0.4 -1.36,-0.4 -0.64,0 -1.84,0.56 -1.2,0.56 -2.32,1.44 z m 67.51996,-0.08 q 0.64,-0.08 1.2,-0.48 0.64,-0.4 1.04,-0.88 0.96,-1.2 2.56,-3.52 1.68,-2.32 3.52,-5.2 1.92,-2.88 3.92,-6.08 2,-3.2 3.76,-6.16 1.76,-3.04 3.04,-5.6 1.36,-2.56 1.84,-4.16 0.16,-0.48 0.16,-0.88 0,-0.88 -2.16,-0.88 -0.96,0 -2.16,0.08 -1.2,0.08 -2.24,0.32 l -0.24,-0.08 q 0.16,-0.64 0.48,-0.96 3.36,-0.16 6.56,-0.32 3.28,-0.24 5.6,-0.64 0.4,0.24 0.4,0.64 0,0.16 -0.48,0.32 -0.64,0.16 -1.04,0.72 -0.4,0.56 -0.8,1.28 -1.68,3.12 -3.84,6.96 -2.08,3.84 -4.48,8 -2.4,4.08 -4.96,8.16 -2.48,4.08 -4.8,7.6 -0.64,0.88 -1.44,1.36 -0.8,0.48 -1.52,0.64 -0.88,0.16 -1.92,0.16 -1.04,0.08 -1.84,0 -0.16,-0.08 -0.16,-0.4 z m 68.47998,-35.36 q 3.6,0 6.32,0.24 2.8,0.16 4.56,0.88 1.84,0.72 2.72,2 0.96,1.28 0.96,3.44 0,1.12 -0.56,2.64 -0.56,1.52 -1.92,3.04 -1.28,1.44 -3.44,2.8 -2.16,1.28 -5.28,2 -0.16,0 -0.16,0.24 0,0.16 0.16,0.16 1.12,0.24 2.48,0.56 1.36,0.24 2.56,0.96 1.2,0.64 2,1.76 0.88,1.04 0.88,2.88 0,2.24 -1.2,4.56 -1.2,2.24 -3.44,4.08 -2.16,1.84 -5.36,3.04 -3.12,1.12 -7.12,1.12 -2.32,0 -4.96,-0.48 -2.64,-0.4 -4.88,-1.52 -0.56,-0.32 -1.04,-0.48 -0.48,-0.24 -0.8,-0.24 -0.64,0 -2,0.64 -1.36,0.64 -2.48,1.52 l -0.48,-0.4 q 1.04,-1.12 1.36,-1.6 0.4,-0.56 0.64,-0.96 1.28,-2.16 2.64,-4.48 1.36,-2.4 2.56,-4.64 1.28,-2.32 2.4,-4.4 1.2,-2.16 2.16,-3.84 0.72,-1.44 1.68,-3.2 1.04,-1.84 2,-3.76 1.04,-1.92 1.92,-3.76 0.96,-1.92 1.68,-3.44 0.08,-0.16 0.08,-0.4 0,-0.24 -0.48,-0.24 -1.12,0 -2.48,0.16 -1.36,0.16 -2.64,0.4 -1.28,0.16 -2.4,0.32 -1.12,0.16 -1.76,0.16 -1.28,0 -1.28,-0.8 0,-0.88 0.48,-1.36 0.16,0 0.24,0.24 0.16,0.24 0.64,0.32 0.56,0.08 2.56,0.08 2.56,0 4.8,-0.08 2.32,-0.16 5.68,-0.16 z m 10.72,5.84 q 0,-1.52 -0.64,-2.48 -0.64,-1.04 -1.68,-1.6 -1.04,-0.56 -2.32,-0.72 -1.28,-0.24 -2.56,-0.24 -0.88,0 -1.68,0.24 -0.72,0.16 -1.28,0.88 -0.88,1.12 -1.84,2.72 -0.88,1.52 -1.68,2.88 -2.64,4.72 -5.68,10.56 -3.04,5.84 -6.08,11.84 -0.4,0.8 -0.48,1.44 0,0.48 0.4,1.2 0.4,0.72 1.28,1.44 0.96,0.64 2.4,1.12 1.44,0.48 3.6,0.48 2.72,-0.08 5.36,-1.04 2.72,-1.04 4.88,-2.72 2.16,-1.76 3.44,-4.08 1.36,-2.4 1.36,-5.12 0,-2.32 -1.76,-3.52 -1.76,-1.28 -4.96,-1.44 -1.12,0 -2.48,0.32 -1.36,0.24 -2.4,0.24 -0.24,-0.08 -0.4,-0.16 -0.08,-0.16 -0.08,-0.64 0,-0.4 0.24,-0.64 0.24,-0.32 0.64,-0.32 0.88,0 1.68,0.24 0.8,0.24 1.68,0.24 0.72,0 1.6,-0.08 0.96,-0.16 1.6,-0.4 1.44,-0.64 2.8,-1.6 1.44,-1.04 2.56,-2.4 1.12,-1.36 1.76,-3.04 0.72,-1.68 0.72,-3.6 z m 44.15996,12.64 q 0.08,0.48 1.04,0.72 0.96,0.24 2.24,0.32 1.36,0.08 2.8,0.08 1.44,0 2.4,0 2.56,0 4.16,0.08 1.6,0 2.24,0.16 0.8,0.24 0.88,0.24 0.16,-0.08 0.32,-0.64 0.32,-1.6 0.8,-4.32 0.48,-2.72 0.96,-5.44 0.48,-2.72 0.8,-4.72 0.4,-2.08 0.48,-2.4 0.16,-0.64 0,-0.64 -0.16,-0.08 -0.8,0.4 -0.24,0.16 -1.36,1.12 -1.12,0.88 -2.88,2.32 -1.68,1.44 -3.76,3.2 -2,1.68 -4,3.44 -1.92,1.68 -3.6,3.28 -1.68,1.6 -2.72,2.8 z m -20.64,19.52 q 0.08,-1.44 1.04,-2.56 1.04,-1.2 2.72,-2.8 15.36,-14.32 24.8,-22.56 9.44,-8.32 12.08,-10.16 0.64,-0.4 1.92,-0.72 1.28,-0.32 1.76,-0.8 0.48,-0.48 0.48,-0.08 0.08,0.32 -0.08,0.64 -0.8,1.2 -1.28,2.8 -0.48,1.52 -0.64,2.56 -0.08,0.32 -0.48,2.16 -0.32,1.76 -0.8,4.4 -0.48,2.56 -1.04,5.6 -0.48,2.96 -0.96,5.76 -0.48,2.72 -0.8,4.96 -0.24,2.16 -0.32,3.04 0,1.36 0.24,2.16 0.32,0.72 0.72,1.12 0.4,0.32 0.8,0.4 0.4,0.08 0.64,0.08 0.4,0 0.96,-0.08 0.56,-0.16 1.2,-0.32 0.64,-0.16 0.64,0.08 0.08,0.24 -0.56,0.4 -0.32,0.08 -1.2,0.32 -0.8,0.24 -1.92,0.56 -1.04,0.32 -2.16,0.64 -1.04,0.24 -1.84,0.4 -1.2,0 -1.6,-1.6 0.08,-0.48 0.32,-2 0.24,-1.6 0.48,-3.36 0.32,-1.76 0.56,-3.28 0.24,-1.6 0.24,-2.08 0,-0.88 -0.88,-1.76 -0.8,-0.96 -2.4,-1.36 -0.56,-0.16 -2.16,-0.24 -1.6,-0.08 -3.84,-0.08 -2.32,0 -4.56,0 -2.24,-0.08 -3.36,-0.24 -6.08,5.52 -10.24,10.08 -4.08,4.56 -6.16,7.6 -0.64,1.04 -0.96,1.84 -0.24,0.88 -0.4,2.24 -0.16,0.48 -0.48,0.24 z" />
  </g>
</svg>
