<?xml version="1.0" encoding="UTF-8" standalone="no"?>
<!-- Created with Inkscape (http://www.inkscape.org/) -->

<svg
   width="210mm"
   height="297mm"
   viewBox="0 0 210 297"
   version="1.1"
   id="svg1"
   inkscape:version="1.3 (0e150ed, 2023-07-21)"
   sodipodi:docname="sheragi.svg"
   inkscape:export-filename="sheragi.png"
   inkscape:export-xdpi="96"
   inkscape:export-ydpi="96"
   xmlns:inkscape="http://www.inkscape.org/namespaces/inkscape"
   xmlns:sodipodi="http://sodipodi.sourceforge.net/DTD/sodipodi-0.dtd"
   xmlns="http://www.w3.org/2000/svg"
   xmlns:svg="http://www.w3.org/2000/svg">
  <sodipodi:namedview
     id="namedview1"
     pagecolor="#ffffff"
     bordercolor="#000000"
     borderopacity="0.25"
     inkscape:showpageshadow="2"
     inkscape:pageopacity="0.0"
     inkscape:pagecheckerboard="0"
     inkscape:deskcolor="#d1d1d1"
     inkscape:document-units="mm"
     inkscape:zoom="0.78871032"
     inkscape:cx="396.85039"
     inkscape:cy="561.67644"
     inkscape:window-width="1392"
     inkscape:window-height="1027"
     inkscape:window-x="0"
     inkscape:window-y="25"
     inkscape:window-maximized="0"
     inkscape:current-layer="layer1" />
  <defs
     id="defs1">
    <inkscape:path-effect
       effect="bend_path"
       id="path-effect1"
       is_visible="true"
       lpeversion="1"
       bendpath="M 65.410005,212.9414 C 446.11185,99.724713 351.09461,371.7695 398.57042,504.99969"
       prop_scale="1"
       scale_y_rel="false"
       vertical="false"
       hide_knot="false"
       bendpath-nodetypes="cc" />
    <rect
       x="55.872021"
       y="378.40596"
       width="598.08458"
       height="279.3601"
       id="rect1" />
  </defs>
  <g
     inkscape:label="Layer 1"
     inkscape:groupmode="layer"
     id="layer1">
    <path
       d="m 103.29773,179.18034 c -0.1721,0.5905 -0.38092,1.35702 -0.62376,2.29509 -0.1685,0.92013 -0.29326,1.69375 -0.37509,2.31816 -0.27124,0.1768 -0.54999,0.16326 -0.83684,-0.0406 0.1455,-0.36593 0.16078,-0.78206 0.0454,-1.24834 -0.23077,-0.93223 -1.11823,-1.64882 -2.667032,-2.14209 -1.474102,-0.51183 -3.631418,-0.41051 -6.457157,0.32009 -2.974572,0.76909 -5.222141,2.02967 -6.736895,3.76204 -1.52939,1.68171 -2.012658,3.5298 -1.467167,5.53838 0.41974,1.54555 1.32476,2.84805 2.708671,3.91213 1.384051,1.06419 2.845807,1.99888 4.385208,2.80547 1.179064,0.62562 2.141052,1.17383 2.884696,1.64056 0.803284,0.39634 1.45341,0.80621 1.950808,1.2283 0.484003,0.37048 0.85855,0.7697 1.124081,1.19717 0.252171,0.37584 0.45833,0.8738 0.618911,1.49396 0.281021,1.08529 0.193514,2.23803 -0.257754,3.45875 -0.37926,1.20204 -1.027997,2.39224 -1.943787,3.57264 -0.844091,1.16149 -1.848058,2.28469 -3.011405,3.37126 -1.105806,1.01586 -2.242517,1.90495 -3.41217,2.66772 -2.924138,1.90694 -6.33029,3.41098 -10.233385,4.52677 -1.632237,0.46662 -3.29303,0.83471 -4.983902,1.10454 -1.61997,0.24919 -3.170987,0.34317 -4.654755,0.28091 -0.399988,-0.0487 -0.75712,-0.082 -1.071172,-0.10022 -0.329266,-0.0693 -0.552214,-0.16999 -0.668794,-0.30229 0.02521,-0.9521 0.05623,-2.02062 0.09344,-3.19865 0.09315,-1.2504 0.177368,-2.27846 0.250999,-3.07788 -0.03023,-0.1023 0.06166,-0.18508 0.275745,-0.24825 0.214094,-0.0632 0.358849,0.0332 0.434286,0.28903 -0.07823,0.52355 -0.04917,1.01553 0.08675,1.47595 0.422978,1.43281 1.61937,2.469 3.582868,3.11788 1.949955,0.59813 4.621837,0.40303 8.032462,-0.56613 1.278833,-0.36339 2.536229,-0.8012 3.773218,-1.31362 1.293733,-0.58373 2.425047,-1.202 3.394425,-1.85672 2.009767,-1.32891 3.592915,-2.83631 4.750022,-4.5291 1.214519,-1.7631 1.588986,-3.54616 1.109294,-5.35212 -0.232949,-0.87702 -0.754182,-1.67777 -1.566176,-2.40041 -0.824857,-0.77338 -2.271629,-1.68757 -4.342675,-2.72928 -1.813574,-0.94704 -3.261986,-1.8212 -4.345411,-2.63098 -1.009853,-0.82911 -1.70153,-1.91148 -2.071373,-3.2491 -0.369797,-1.33744 -0.338751,-2.78662 0.09938,-4.34669 0.511436,-1.58031 1.253158,-3.05664 2.226949,-4.42714 0.344369,-0.48047 0.823304,-1.05289 1.437332,-1.71552 0.674184,-0.73419 1.475245,-1.44607 2.403613,-2.13435 1.002401,-0.70788 2.169972,-1.40214 3.502846,-2.08012 1.407297,-0.69736 3.007948,-1.27517 4.800091,-1.72958 1.194829,-0.30297 2.386437,-0.46443 3.572888,-0.4844 1.17354,-0.0718 2.29306,0.12008 3.35561,0.57479 0.46283,0.27155 0.7382,0.58912 0.82675,0.95204 z m 36.00816,26.04662 c 0.33969,-0.55832 0.75758,-1.26038 1.26556,-2.12152 0.5821,-0.87798 1.32147,-2.04208 2.24768,-3.5235 0.85332,-1.36482 2.63317,-4.23699 3.48648,-5.60181 1.51678,-2.32571 3.22695,-5.01732 5.38254,-8.39841 -1.05121,-0.79782 -1.73026,-1.41047 -2.03518,-1.846 0.0299,-0.27526 0.38087,-0.47048 1.05337,-0.5834 0.63507,-0.10664 1.27039,-0.21215 1.90595,-0.31651 0.52333,-0.0859 0.86301,-0.35696 1.01948,-0.81423 0.30388,-0.54517 0.79251,-1.46769 1.51056,-2.83241 0.78756,-1.36554 1.57008,-2.80827 2.34925,-4.32851 0.85536,-1.53218 1.57946,-2.9591 2.16828,-4.28479 0.58899,-1.32609 0.85706,-2.19726 0.7959,-2.62014 -0.0915,-0.63289 -0.38038,-0.99509 -0.86698,-1.08561 -0.4863,-0.0905 -1.23269,-0.0619 -2.23599,0.0888 -0.84854,0.12752 -1.84872,0.30684 -2.99574,0.53976 -1.07863,0.16834 -2.03292,0.37453 -2.86175,0.61638 -0.46135,0.0745 -0.71781,-0.0455 -0.76934,-0.36111 -0.0515,-0.31545 0.23059,-0.52377 0.84718,-0.62311 0.91546,-0.14749 2.05195,-0.32823 3.35513,-0.52988 1.38107,-0.2676 2.80395,-0.53619 4.26659,-0.80424 1.53273,-0.33219 3.03354,-0.62577 4.50142,-0.88148 1.53743,-0.31901 2.92868,-0.58407 4.16671,-0.79772 0.77986,-0.10075 0.93787,0.2293 0.48229,0.98568 -0.68206,0.83953 -1.42522,1.79716 -2.22464,2.87137 -0.72237,1.06409 -1.40456,2.09857 -2.04711,3.10192 -0.95976,1.53073 -2.00029,3.26749 -3.11051,5.20589 -1.10937,1.93692 -2.07898,3.70414 -2.90951,5.28482 -0.18456,0.29781 -0.30193,0.53168 -0.35243,0.70117 0.0244,0.15808 0.26115,0.20222 0.71033,0.13357 1.72864,-0.21036 3.31325,-0.38963 4.74407,-0.54079 1.49646,-0.21435 2.85416,-0.4019 4.05256,-0.56345 0.68856,-0.0928 1.78659,-0.26663 3.37192,-0.52318 1.64697,-0.26395 3.37457,-0.52958 5.17682,-0.79316 1.87887,-0.27253 3.68157,-0.55143 5.40934,-0.83929 1.71402,-0.28556 3.09655,-0.50237 4.06266,-0.64737 0.36821,-0.0879 0.695,-0.22341 0.98061,-0.40677 0.004,-0.003 0.009,-0.006 0.0128,-0.008 0.28903,-0.18755 0.50011,-0.3943 0.63298,-0.62067 2.00345,-3.2903 3.93227,-6.28357 5.77184,-8.98992 1.8388,-2.70519 3.76885,-5.29378 5.79215,-7.76171 0.37821,-0.39585 0.88245,-0.71823 1.5131,-0.96554 0.78146,-0.36058 1.97457,-0.82579 3.56505,-1.37358 1.59438,-0.54912 3.28173,-1.06471 5.06113,-1.54184 1.77803,-0.53049 3.44837,-0.96386 5.00365,-1.30457 1.55387,-0.34041 2.71156,-0.50586 3.45173,-0.50797 0.16466,-4.7e-4 0.45397,0.0255 0.86625,0.0787 0.41264,0.0532 0.61875,0.16052 0.61856,0.3204 -1.2e-4,0.10665 -0.16513,0.18623 -0.49457,0.2395 -0.32955,0.0533 -0.57616,0.0804 -0.74086,0.0807 -0.24588,5.2e-4 -0.74156,0.055 -1.47928,0.16646 -0.73891,0.0582 -1.55871,0.1995 -2.45625,0.42547 -0.89839,0.17267 -1.83429,0.42956 -2.80507,0.77152 -0.8905,0.2868 -1.69447,0.65526 -2.41139,1.10345 -1.91417,1.12425 -3.67669,2.47394 -5.28517,4.04243 -1.06905,1.11671 -2.16274,2.31999 -3.27804,3.61066 -1.11522,1.29056 -2.17618,2.61094 -3.18393,3.9593 -1.00767,1.34827 -1.96437,2.69859 -2.87133,4.04875 -0.90655,1.34953 -1.69424,2.61633 -2.36575,3.79332 -1.83218,3.18379 -3.22732,5.92874 -4.20313,8.16333 0,0 0,0 0,0 -0.3114,0.7133 -0.58195,1.37847 -0.81225,1.99447 -0.95394,2.55161 -1.36168,4.3943 -1.25181,5.50519 0.16154,1.63323 1.16774,2.52875 3.00757,2.70763 0.49293,0.048 1.04596,0.0446 1.65986,-0.009 1.01747,-0.0893 2.23413,-0.37974 3.65997,-0.86585 1.49868,-0.49183 2.67067,-0.97527 3.5177,-1.46123 0.21888,-0.0149 0.37018,0.0551 0.45379,0.20989 0.08,0.10157 -0.0187,0.26848 -0.29548,0.50118 -1.42713,0.57948 -3.23467,1.24336 -5.43754,2.01596 -1.03248,0.33648 -2.17797,0.63959 -3.43786,0.91222 -1.43174,0.30926 -3.00902,0.57881 -4.73513,0.8139 -1.23621,0.074 -2.17192,-0.11902 -2.81058,-0.58543 -0.63843,-0.46625 -1.00668,-1.12208 -1.10174,-1.96966 -0.10099,-0.90038 0.0105,-1.87877 0.33901,-2.93396 0.56316,-1.61741 1.20759,-3.24243 1.93566,-4.87346 0.79642,-1.69137 1.54979,-3.18932 2.25284,-4.49096 0.25766,-0.45422 0.36383,-0.92001 0.31708,-1.39767 -0.0727,-0.74259 -0.68634,-1.19265 -1.84435,-1.34241 -1.1575,-0.1497 -2.26514,-0.16616 -3.3199,-0.0507 -1.80797,0.19799 -3.72497,0.44557 -5.74776,0.74621 -2.02304,0.30068 -4.03978,0.64076 -6.04933,1.01966 -1.93426,0.36873 -3.7875,0.76541 -5.55763,1.18663 -1.77665,0.36825 -3.28947,0.73478 -4.5306,1.09003 -0.43908,0.12244 -0.79099,0.31278 -1.05547,0.57044 -0.2645,0.25768 -0.52024,0.5682 -0.76696,0.93151 -1.37405,2.38151 -2.88061,4.94666 -4.51829,7.71753 -1.5713,2.7021 -2.78573,5.35642 -3.65691,7.95131 -0.0873,0.34086 -0.19339,0.57684 -0.31843,0.70797 -0.12511,0.13121 -0.47557,0.24907 -1.05175,0.3552 -0.64807,0.11937 -1.21939,0.25292 -1.71337,0.39979 -0.50387,0.0945 -0.96186,0.23534 -1.37361,0.4222 -0.41172,0.18684 -0.85423,0.40724 -1.32706,0.66132 -0.47268,0.254 -1.03808,0.60823 -1.69396,1.06295 -0.11788,-0.0312 -0.23579,-0.0624 -0.35373,-0.0935 z m 140.35121,-6.03091 c 0.30821,-0.0112 0.4115,0.13613 0.31068,0.4397 -0.49449,0.11693 -1.01255,0.31245 -1.55217,0.58717 -0.45486,0.24572 -0.86609,0.47957 -1.2331,0.69951 -0.68382,0.51323 -1.76754,0.67508 -3.26251,0.51631 -1.50559,-0.15778 -3.1004,-0.3384 -4.79084,-0.53499 -0.0362,-0.004 -0.90401,-0.10551 -0.94016,-0.10972 -2.03037,-0.29079 -4.09821,-0.54871 -6.20651,-0.77294 -2.11175,-0.22459 -4.17089,-0.45188 -6.20497,-0.69225 -2.03594,-0.24059 -3.94797,-0.47896 -5.77252,-0.73235 -2.67885,-0.37202 -4.80985,-0.69287 -6.50879,-1.03495 -1.68658,-0.28531 -3.01114,-0.59212 -3.98651,-0.94507 -0.89733,-0.39913 -1.51194,-0.79462 -1.84125,-1.19531 -0.32476,-0.45336 -0.46882,-0.94557 -0.42879,-1.47761 0.072,-0.95685 0.5444,-1.93968 1.43255,-2.93834 0.28763,-0.31164 1.07946,-1.15701 2.18987,-2.30369 1.1443,-1.18167 2.35135,-2.40905 3.61748,-3.67021 1.27192,-1.31445 2.43973,-2.47405 3.48438,-3.4769 1.0522,-1.05706 1.59256,-1.60615 1.59917,-1.65908 0.0198,-0.15877 -0.0822,-0.27919 -0.30649,-0.36068 -0.22294,-0.081 -0.76104,-0.17498 -1.60653,-0.27306 -0.38477,-0.0446 -0.56838,-0.14558 -0.55038,-0.30475 0.0419,-0.37037 0.53183,-0.55866 1.47252,-0.55344 1.79604,0.0541 3.19296,-0.40173 4.20446,-1.39271 0.36298,-0.32655 1.13818,-1.05387 2.35081,-2.16757 1.29177,-1.10221 2.61434,-2.27069 3.97409,-3.50536 1.4638,-1.28716 2.72082,-2.3875 3.8462,-3.39178 1.20413,-1.03046 1.83497,-1.63605 1.87504,-1.84895 0.0394,-0.20936 -0.18955,-0.3618 -0.68762,-0.454 -2.48938,-0.46084 -4.98614,-0.82278 -7.48441,-1.08768 -2.49582,-0.26465 -4.71732,-0.33735 -6.64506,-0.24521 -0.0791,-0.0363 -0.15833,-0.0726 -0.23753,-0.10877 0.27033,-0.8814 0.67321,-1.45128 1.21018,-1.70813 2.55013,0.41968 5.2597,0.87735 8.07039,1.38031 2.90408,0.51807 5.64725,1.04366 8.23077,1.56064 1.63045,0.32626 3.13821,0.60411 4.76865,0.93038 1.72999,0.34667 3.62023,0.75227 5.64592,1.22592 0.62114,0.14515 1.25627,0.2975 1.90466,0.45741 2.85635,0.70614 5.71006,1.48972 8.55604,2.35409 2.83702,0.86164 5.26863,1.70235 7.2426,2.44302 0.49615,0.18616 0.69594,0.40594 0.6015,0.65498 -0.26101,0.18788 -0.73768,0.45925 -1.43503,0.82693 -0.6768,0.31667 -1.31764,0.67795 -1.92292,1.08236 -0.15316,-0.084 -0.30647,-0.16775 -0.4599,-0.25125 0.10795,-0.30126 0.0851,-0.6214 -0.0706,-0.9602 -0.074,-0.3096 -0.22552,-0.53331 -0.4538,-0.67032 -2.45306,-1.14725 -5.16165,-2.22929 -8.11559,-3.21052 -2.01479,-0.66927 -4.04288,-1.27484 -6.08068,-1.81731 -0.94747,-0.25243 -1.89663,-0.49225 -2.84718,-0.71957 -1.32874,-0.31776 -2.38641,-0.28328 -3.16463,0.0892 -2.6534,1.37471 -5.33838,3.05324 -8.03273,5.0427 -2.6015,1.94991 -5.00317,3.9263 -7.21299,5.89872 -0.38465,0.42665 -0.18642,0.69801 0.58301,0.82134 1.07131,0.22574 2.14517,0.43386 3.22298,0.62491 1.07711,0.19092 2.19382,0.39814 3.34587,0.62329 3.49903,0.68385 6.64389,1.34762 9.23156,1.88376 0.38337,0.0722 0.76734,0.14311 1.15197,0.21277 2.3416,0.4241 4.70068,0.80436 7.09835,1.1494 0.091,0.11128 0.18178,0.22264 0.27237,0.33409 -0.21197,0.15562 -0.48471,0.35664 -0.80188,0.59257 -0.31962,0.23773 -0.59272,0.46252 -0.81956,0.67316 -0.1365,0.18227 -0.46749,0.19421 -0.99448,0.0405 -1.56382,-0.5007 -3.2626,-0.99616 -5.09316,-1.47371 -0.44274,-0.11553 -0.89324,-0.23015 -1.35147,-0.3437 -2.2632,-0.61573 -4.57898,-1.16885 -6.9454,-1.65729 -1.75476,-0.36218 -3.47663,-0.69124 -5.16043,-0.99067 -1.60728,-0.28582 -3.14662,-0.51168 -4.61135,-0.68293 -0.61373,-0.0944 -1.05958,0.002 -1.33565,0.28437 -1.53436,1.39159 -3.08822,2.87335 -4.65782,4.44851 -1.49346,1.58332 -2.8027,3.15198 -3.93572,4.68907 -0.86685,1.13789 -1.34241,2.19015 -1.44322,3.1441 -0.26623,2.51904 2.15157,3.95946 7.1158,4.67463 1.77429,0.25561 3.88374,0.47607 6.44731,0.72141 2.61726,0.25643 5.26939,0.47202 7.99127,0.66293 1.36078,0.0691 2.69308,0.12868 3.99735,0.17707 1.3111,0.0485 2.59493,0.0852 3.85238,0.10889 2.57936,0.0668 4.66763,-0.0233 6.29418,-0.33325 z m 55.12281,7.51771 c -0.16362,-0.0733 -0.30963,-0.16619 -0.43828,-0.27885 -0.0935,-0.15274 -0.1055,-0.26921 -0.0353,-0.34959 0.4742,-0.1525 1.00247,-0.36296 1.58591,-0.6304 0.61999,-0.30802 1.15323,-0.5798 1.60524,-0.82155 0.35415,-0.39673 1.0529,-0.38718 2.09273,0.0567 0.12569,0.0573 0.25188,0.11551 0.37855,0.1747 2.09484,0.98363 4.32103,2.22474 6.64069,3.74352 2.52351,1.67559 4.87307,3.49936 7.0356,5.44381 3.9533,3.61913 7.60253,7.83446 10.82426,12.59272 0.17485,0.25824 0.34631,0.51491 0.51441,0.76993 0,0 0,0 0,0 3.61993,5.50208 5.73158,10.23059 6.61742,13.76703 1.02738,3.79912 0.33641,6.21564 -1.79757,7.28182 -1.04979,0.5245 -2.4258,0.50883 -4.12838,-0.003 -1.62038,-0.46381 -3.38525,-1.37423 -5.3368,-2.69774 -1.95658,-1.32692 -4.02743,-3.07542 -6.3099,-5.23055 -1.12538,-1.08465 -2.25391,-2.25111 -3.39959,-3.50206 -1.0867,-1.18617 -2.1845,-2.44106 -3.3088,-3.76986 -0.46299,-0.5472 -0.77585,-0.60781 -0.93641,-0.19746 -0.57962,2.16642 -1.26115,4.94319 -2.15976,8.25769 0,0 0,0 0,0 -0.0607,0.22366 -0.12229,0.44977 -0.18496,0.67827 -0.90814,3.65721 -1.95138,7.53985 -3.21336,11.66401 -0.61715,2.12921 -1.15291,4.35563 -1.62007,6.6706 -0.4358,2.37608 -0.70577,4.75635 -0.80873,7.15777 -0.14156,2.2701 -0.0955,4.53948 0.14253,6.83393 0,0 0,0 0,0 0.0169,0.15722 0.0346,0.31456 0.0533,0.47203 0.31705,2.52327 0.91614,4.97758 1.81114,7.41062 1.37654,3.74211 3.39494,7.25564 6.12522,10.66058 0.32119,0.33361 0.32701,0.54654 0.0205,0.63676 -0.20459,0.0602 -0.37068,-0.0336 -0.49897,-0.28058 -1.48695,-1.84041 -2.84396,-3.78447 -4.08904,-5.83885 -1.29628,-2.03855 -2.39621,-4.27688 -3.3379,-6.73732 -0.75308,-1.96762 -1.39601,-3.8107 -1.92071,-5.54796 -0.40345,-1.35248 -0.73188,-2.64028 -0.98278,-3.87073 -0.62048,-2.78273 -0.90653,-5.48296 -0.86115,-8.16019 0.0454,-2.67722 0.38556,-5.4597 0.99507,-8.40084 0.62207,-2.78595 1.42973,-5.83583 2.38404,-9.33846 0,0 0,0 0,0 0.002,-0.009 0.12097,-0.44269 0.1234,-0.45162 0.30629,-1.04602 0.69119,-2.37768 1.10228,-3.89788 0.45951,-1.56883 0.89169,-3.20343 1.28835,-4.90231 0.39682,-1.69951 0.73912,-3.35693 1.03257,-4.96736 0.38221,-1.57832 0.64626,-2.91578 0.81043,-3.97103 0.16484,-0.13531 0.32316,-0.111 0.47428,0.074 2.27481,2.78568 4.36593,5.24566 6.41563,7.43264 0.62777,0.67484 1.24164,1.31267 1.84502,1.91385 1.39983,1.39507 2.7375,2.58291 4.04391,3.56179 1.95517,1.43971 3.79255,2.37963 5.56225,2.78622 1.8522,0.45023 3.5754,0.26413 5.1616,-0.61504 0.55938,-0.31004 1.041,-0.81774 1.43727,-1.52834 0.48464,-0.66232 0.70674,-1.57509 0.64963,-2.74119 0.0323,-1.1161 -0.21332,-2.49057 -0.76151,-4.10827 -0.5472,-1.61482 -1.516,-3.52217 -2.93822,-5.66694 -0.0765,-0.11539 -0.15482,-0.22963 -0.23489,-0.34273 -0.43543,-0.61396 -0.92314,-1.1931 -1.46175,-1.73528 -0.54358,-0.59936 -1.17259,-1.02928 -1.88054,-1.28745 -1.12067,-0.38881 -2.8967,-0.82085 -5.25381,-1.20664 -2.3202,-0.41881 -4.96253,-0.75396 -7.88236,-0.94828 -2.92191,-0.19446 -5.9803,-0.26888 -9.14592,-0.19093 -3.16664,0.078 -6.19948,0.30116 -9.09369,0.647 -2.79961,0.36075 -5.30318,0.82359 -7.50239,1.33022 -0.0621,0.0134 -0.12369,0.0268 -0.1849,0.0402 -2.06087,0.45149 -3.67658,0.91222 -4.7912,1.29702 -0.12137,0.0357 -0.25856,-0.0134 -0.41243,-0.14667 -0.2216,-0.26248 -0.46223,-0.50388 -0.72127,-0.72367 -0.22455,-0.26045 -0.46791,-0.49964 -0.72946,-0.71704 -0.25943,-0.21564 -0.57865,-0.47879 -0.94648,-0.77709 -0.36993,-0.30001 -0.80221,-0.57761 -1.29561,-0.82993 -0.87216,-0.21088 -1.79879,-0.28283 -2.77287,-0.21339 -0.10728,-0.0805 -0.22543,-0.20209 -0.35528,-0.36491 -0.0759,-0.12267 -0.0286,-0.1872 0.14309,-0.19265 5.85401,-1.29948 11.46764,-2.09252 16.71186,-2.57945 3.02189,-0.28039 5.93607,-0.4611 8.68179,-0.58467 7.46254,-0.33585 14.52082,-0.12716 20.64129,0.18027 0.50023,-0.057 0.73742,-0.18696 0.70952,-0.39338 0.0278,-0.13639 -0.0976,-0.38009 -0.37858,-0.7292 -1.76944,-2.0283 -3.76369,-3.87497 -5.95993,-5.51161 -2.19568,-1.63624 -4.3915,-2.99921 -6.55369,-4.09653 -1.44601,-0.6857 -2.96612,-1.14724 -4.54448,-1.3806 -0.32583,-0.0482 -0.64831,-0.0874 -0.96733,-0.1178 -1.22798,-0.11571 -2.40343,-0.0998 -3.5237,0.04 z m 41.72111,98.90391 c -0.29686,0.14248 -0.42574,0.67757 -0.39277,1.60426 0.033,0.92697 0.14563,1.99004 0.33427,3.19215 0.20364,1.27624 0.43355,2.58474 0.68902,3.92564 0.25265,1.32613 0.46365,2.47373 0.62296,3.35314 0.39897,2.20236 0.69153,4.05283 0.88612,5.49296 0,0 0,0 0,0 0.0154,0.11339 0.0302,0.22445 0.0445,0.33318 0.24893,1.48839 0.3642,2.54468 0.35443,3.15568 -0.0386,0.77054 -0.0534,1.19256 -0.0417,1.26706 0.0761,0.14068 0.31024,0.25651 0.70236,0.34793 1.10317,0.13367 2.57824,0.28506 4.44243,0.46055 1.86134,0.17523 3.72278,0.35546 5.58429,0.54053 1.86483,0.18541 3.47102,0.33445 4.8385,0.44518 1.42514,0.17896 2.25685,0.29482 2.47603,0.34009 0.4447,0.0918 0.65576,0.0609 0.63297,-0.0935 0.03,-0.16217 -0.1588,-0.52892 -0.56764,-1.09882 -0.13824,-0.21278 -0.60928,-0.81934 -1.40529,-1.79822 -0.73952,-0.98175 -1.73148,-2.26405 -2.94687,-3.79188 -0.56978,-0.68744 -1.17624,-1.41761 -1.81068,-2.17849 -0.70572,-0.84869 -1.45793,-1.74946 -2.24732,-2.68842 -1.43414,-1.7169 -2.90792,-3.41733 -4.4208,-5.09639 -1.44643,-1.61349 -2.85605,-3.10196 -4.2261,-4.46882 -1.36866,-1.36546 -2.55679,-2.44499 -3.5487,-3.24379 z m -26.3002,-22.31073 c 0.92992,-0.24287 1.88516,-0.0858 2.86215,0.4875 1.04735,0.62237 2.31558,1.48933 3.78311,2.61451 12.83173,10.0437 23.49113,21.22661 30.13672,28.77881 1.85521,2.09021 3.52523,4.03088 4.97683,5.75639 4.06813,4.82203 6.7568,8.33806 7.87986,10.02414 0.35354,0.58078 0.72545,1.47683 1.11018,2.68565 0.38489,1.20931 0.76433,2.02369 1.1447,2.44552 0.38019,0.42163 0.43749,0.65044 0.17342,0.68591 -0.20097,0.10579 -0.41756,0.0954 -0.64977,-0.0308 -0.89699,-0.66659 -1.90596,-1.15781 -3.0262,-1.47439 -1.0671,-0.32377 -1.9554,-0.5133 -2.66305,-0.57096 -0.21747,-0.0463 -0.97144,-0.17902 -2.23513,-0.38953 -1.18733,-0.14022 -2.72766,-0.3203 -4.51723,-0.52452 -1.75158,-0.21343 -3.6744,-0.43885 -5.75341,-0.6718 -2.01772,-0.16585 -3.98284,-0.33431 -5.8948,-0.50558 -1.85874,-0.17905 -3.54988,-0.30271 -5.0699,-0.37398 -1.45354,-0.006 -2.48387,1.5e-4 -3.07159,0.015 -0.89607,0.1359 -1.59143,0.35329 -2.08558,0.65081 -0.43059,0.36232 -0.75067,0.74427 -0.96031,1.14624 -0.15692,0.39413 -0.23521,0.77613 -0.23477,1.14652 4.4e-4,0.37046 0.0162,0.66433 0.0478,0.88207 0.0526,0.36285 0.14162,0.79433 0.26672,1.29523 0.17786,0.4933 0.36023,1.02354 0.54672,1.59066 0.18654,0.56728 0.1997,0.86211 0.0414,0.88386 -0.14861,0.0946 -0.31525,-0.14214 -0.50154,-0.70877 -0.0914,-0.27796 -0.27633,-0.819 -0.54617,-1.58935 -0.265,-0.71274 -0.56762,-1.53682 -0.93148,-2.52854 -0.34986,-0.91024 -0.70692,-1.85298 -1.0732,-2.83107 -0.30258,-0.91439 -0.56395,-1.72014 -0.78428,-2.42382 -0.17198,-1.0787 0.23595,-1.88272 1.22934,-2.41616 0.33663,0.0208 1.00013,0.056 2.04468,0.11073 1.08816,0.0456 2.22905,0.0843 3.42264,0.11619 1.20583,0.10496 2.32557,0.18838 3.36176,0.24919 1.0891,0.0524 1.79002,0.0547 2.10666,0.004 0.57929,-0.0922 1.09447,-0.59092 1.54156,-1.50061 0.445,-0.73397 0.70401,-1.72907 0.7712,-2.98377 0,0 0,0 0,0 0.0102,-0.18767 0.0161,-0.38118 0.0176,-0.58049 0.0173,-0.53541 -0.0736,-1.55886 -0.28283,-3.05329 -0.20884,-1.49139 -0.50724,-3.29394 -0.90361,-5.37053 -0.41185,-2.15766 -0.836,-4.27406 -1.27357,-6.35359 -0.38669,-2.09809 -0.65362,-3.65518 -0.78547,-4.72521 -4.87515,-4.82941 -9.32809,-8.58866 -13.29113,-11.42704 -3.92831,-2.75746 -7.18854,-4.62628 -9.66536,-5.73777 -0.83148,-0.32196 -1.54541,-0.5288 -2.13801,-0.62592 -0.6221,-0.0144 -1.38409,0.0565 -2.28691,0.21256 -0.34678,-0.0294 -0.48749,-0.19914 -0.4237,-0.51044 1.19636,-0.62078 2.39103,-1.24541 3.58399,-1.87392 z m -0.37666,99.02001 c 0.0631,0.10504 0.12615,0.21011 0.18922,0.31521 -0.23926,0.90766 -0.38928,1.91889 -0.45011,3.03474 -0.0608,1.11592 -0.0456,2.18962 0.046,3.22118 0.0294,0.33174 0.0677,0.66223 0.11467,0.99145 0,0 0,0 0,0 0.3038,2.1499 0.98381,4.24733 2.0417,6.29173 1.16623,2.36103 2.61553,4.59559 4.34945,6.69833 1.74044,2.1774 3.70854,4.18971 5.90552,6.03145 2.15106,1.92178 4.28553,3.65389 6.40782,5.19707 2.12895,1.61791 4.15785,3.01289 6.0899,4.18808 1.99433,1.24625 3.66835,2.28527 5.03857,3.13161 0.42481,-0.0409 0.45618,-0.26908 0.095,-0.68483 -0.48822,-0.62803 -1.23303,-1.68511 -2.22799,-3.1692 -0.98883,-1.41081 -2.00604,-3.15807 -3.05059,-5.2436 -0.98487,-2.01608 -1.91237,-4.33635 -2.78366,-6.9621 -0.86464,-2.55077 -1.41993,-5.27516 -1.66867,-8.17116 -0.30669,-3.57068 -0.21888,-6.60308 0.26035,-9.09773 0.24733,-1.29286 0.60024,-2.4428 1.05873,-3.45026 1.40359,-2.8838 3.51174,-4.45604 6.32715,-4.70957 1.1154,-0.10045 2.80314,0.19612 5.06098,0.89326 2.25888,0.69745 4.7276,1.97723 7.40826,3.84288 0.66685,0.4641 1.332,0.96791 1.99551,1.51139 0,0 0,1e-5 0,1e-5 2.00521,1.64362 3.9926,3.64803 5.96692,6.01236 2.6893,3.21905 4.98332,7.24224 6.90459,12.05272 1.10797,2.87278 1.95012,5.71903 2.52954,8.5384 0.58597,2.89179 0.99672,5.53158 1.23044,7.92145 0.12049,1.23207 0.20032,2.57457 0.2413,4.02907 0.041,1.45411 0.002,2.8776 -0.11715,4.27195 -0.066,1.38866 -0.24622,2.67917 -0.54159,3.87391 -0.29537,1.1947 -0.69559,2.14764 -1.20341,2.86025 -0.93316,-0.18201 -2.10073,-0.5201 -3.49867,-1.0178 -1.33726,-0.43184 -2.51534,-0.88537 -3.53395,-1.3592 -0.0813,-0.24796 -0.16248,-0.49604 -0.24354,-0.74425 0.0755,-0.0451 0.15099,-0.0902 0.2265,-0.13522 0.33402,0.11004 0.66407,0.18358 0.9901,0.2208 0.32603,0.0372 0.67454,0.0352 1.04554,-0.006 0.954,-0.10587 1.81059,-0.60352 2.57202,-1.4902 0.76929,-0.81448 1.40228,-1.90429 1.90176,-3.27047 0.49952,-1.36628 0.82037,-2.93187 0.96471,-4.70084 0.1974,-1.77435 0.20273,-3.64141 0.0161,-5.60519 -0.35255,-3.70981 -1.25027,-7.12919 -2.70614,-10.2605 -1.40257,-3.13569 -3.17223,-5.95865 -5.31595,-8.46124 -1.25627,-1.53319 -2.86848,-3.15241 -4.83499,-4.85445 -1.91393,-1.70711 -3.97756,-3.29042 -6.19225,-4.74738 -1.44491,-0.93005 -2.89141,-1.74113 -4.34027,-2.43343 -0.71197,-0.34007 -1.42439,-0.65148 -2.13731,-0.93426 -2.16342,-0.85811 -4.12199,-1.20852 -5.87537,-1.05385 -2.00303,0.1767 -3.47942,1.20296 -4.4294,3.077 0,0 0,0 0,0 -0.058,0.11414 -0.11398,0.23142 -0.16805,0.35186 -0.94089,2.09588 -1.24993,5.03393 -0.92475,8.81971 0.2806,3.26672 1.04009,6.49951 2.28335,9.69229 1.29674,3.18899 2.78447,6.05986 4.46518,8.60963 1.74065,2.61935 3.58492,4.84517 5.53184,6.67881 1.9995,1.82801 3.83899,3.06241 5.51272,3.7129 0.56038,0.24142 0.96966,0.31139 1.2274,0.2108 0.2654,-0.0269 0.35658,-0.44551 0.27538,-1.25591 -0.17853,-1.24705 -0.40358,-2.71415 -0.67285,-4.40119 -0.26963,-1.68928 -0.54898,-3.52191 -0.83911,-5.51053 0.0163,-0.11336 0.0327,-0.22671 0.0491,-0.34006 0.3023,0.0841 0.60461,0.16811 0.90692,0.25206 0.1358,1.47662 0.31408,3.10141 0.53617,4.86569 0.22948,1.84069 0.45893,3.63843 0.6898,5.40152 0.2912,1.83034 0.60261,3.54412 0.93353,5.14345 0.39168,1.66682 0.76869,3.14696 1.12853,4.44174 -0.12608,0.31074 -0.36452,0.3379 -0.71541,0.0802 -0.34361,-1.14967 -0.69638,-1.9278 -1.0627,-2.33422 -0.31308,-0.41195 -0.86837,-0.83513 -1.66593,-1.27109 -2.11518,-1.19091 -4.53296,-2.57662 -7.27186,-4.17656 -2.67614,-1.52978 -5.38287,-3.18017 -8.12695,-4.95418 -2.73557,-1.69841 -5.31205,-3.46065 -7.72921,-5.28047 -2.46959,-1.81443 -4.50281,-3.56251 -6.09669,-5.23346 -0.70465,-0.69339 -1.62373,-1.70655 -2.75841,-3.04081 -1.128,-1.25925 -2.22719,-2.82088 -3.29826,-4.68265 -1.12431,-1.85731 -2.13889,-4.01852 -3.04607,-6.47959 -0.80906,-2.19486 -1.36241,-4.63954 -1.66353,-7.33088 -0.0371,-0.32723 -0.0705,-0.65809 -0.10023,-0.99259 -0.0915,-1.03139 -0.1301,-2.0658 -0.11581,-3.1034 0.0143,-1.03768 0.12799,-2.15647 0.34071,-3.35661 0.18263,-0.0533 0.36527,-0.10671 0.5479,-0.16007 z m 29.76514,87.36287 c 0.16087,0.59481 0.42171,1.13281 0.78167,1.61248 0.37387,0.55508 0.75456,0.99078 1.14042,1.30744 0.95151,0.74933 2.34801,1.73862 4.15814,2.91556 1.82962,1.25412 3.8696,2.52342 6.11002,3.78239 2.25671,1.3318 4.63768,2.63714 7.13412,3.89478 2.49888,1.25887 4.89821,2.3731 7.20084,3.3567 2.35204,0.969 4.50217,1.725 6.43965,2.295 1.95313,0.63413 3.50926,0.96705 4.6396,1.03752 0.34422,0.0339 0.64388,0.0115 0.8987,-0.0658 0.56402,-0.17119 0.57725,-1.09779 0.0889,-2.79983 -0.21767,-0.7586 -0.48285,-1.60615 -0.79346,-2.55043 -0.31048,-0.94389 -0.64813,-1.81543 -1.01687,-2.61571 0.001,-0.10353 0.002,-0.20706 0.004,-0.31061 0.44576,0.0239 0.80453,0.13784 1.07662,0.34129 0.79431,2.67153 1.62149,5.2277 2.48534,7.68095 0.93247,2.496 1.85956,4.55942 2.73403,6.20692 -0.0433,0.3526 -0.18958,0.57393 -0.44092,0.66327 -0.1005,0.0357 -0.26673,-0.10844 -0.49693,-0.43515 -0.27336,-0.44733 -0.63816,-0.76306 -1.0972,-0.9472 -0.459,-0.18412 -0.96819,-0.35387 -1.5278,-0.51012 -2.40962,-0.63555 -5.11275,-1.4434 -8.09689,-2.46674 -2.96736,-0.95892 -6.06769,-2.10245 -9.3061,-3.45523 -3.18653,-1.36656 -6.37864,-2.89495 -9.57911,-4.58482 -3.17844,-1.61492 -6.1554,-3.28853 -8.91061,-4.97571 -0.70158,-0.47856 -1.28748,-1.06364 -1.75582,-1.75364 -0.46827,-0.6899 -0.82181,-1.3661 -1.06086,-2.02565 -0.26892,-0.81073 -0.49704,-1.70838 -0.68218,-2.69146 -0.23753,-0.97296 -0.39683,-1.84363 -0.48034,-2.60888 0.0253,-0.16068 0.1432,-0.25971 0.35341,-0.29728 z"
       id="text1"
       style="font-size:32px;font-family:Zapfino;-inkscape-font-specification:Zapfino;letter-spacing:24px;word-spacing:0px;white-space:pre;fill:#bbc040;fill-opacity:0.188235"
       transform="scale(0.26458333)"
       aria-label="SHERAGI"
       inkscape:path-effect="#path-effect1"
       inkscape:original-d="m 89.951094,368.11601 q -0.32,0.8 -0.8,2.08 -0.4,1.28 -0.64,2.16 -0.32,0.16 -0.56,-0.24 0.24,-0.48 0.24,-1.2 0,-1.44 -1.44,-2.72 -1.36,-1.28 -4.4,-1.28 -3.2,0 -5.2,1.92 -2,1.84 -2,4.96 0,2.4 1.12,4.48 1.12,2.08 2.48,3.84 1.04,1.36 1.68,2.32 0.72,0.88 1.12,1.68 0.4,0.72 0.56,1.44 0.16,0.64 0.16,1.6 0,1.68 -0.8,3.28 -0.72,1.6 -2,2.96 -1.2,1.36 -2.72,2.48 -1.44,1.04 -2.88,1.68 -3.6,1.6 -8,1.6 -1.84,0 -3.68,-0.32 -1.76,-0.32 -3.28,-1.04 -0.4,-0.24 -0.72,-0.4 -0.32,-0.24 -0.4,-0.48 0.32,-1.36 0.72,-3.04 0.48,-1.76 0.8,-2.88 0,-0.16 0.24,-0.16 0.24,0 0.24,0.4 -0.24,0.72 -0.24,1.44 0,2.24 1.84,4 1.84,1.68 5.68,1.68 1.44,0 2.88,-0.24 1.52,-0.32 2.72,-0.88 2.48,-1.12 4.16,-3.12 1.76,-2.08 1.76,-4.88 0,-1.36 -0.64,-2.72 -0.64,-1.44 -2.48,-3.76 -1.6,-2.08 -2.48,-3.68 -0.8,-1.6 -0.8,-3.68 0,-2.08 0.88,-4.16 0.96,-2.08 2.32,-3.68 0.48,-0.56 1.28,-1.28 0.88,-0.8 2,-1.44 1.2,-0.64 2.72,-1.12 1.6,-0.48 3.52,-0.48 1.28,0 2.48,0.4 1.2,0.32 2.16,1.36 0.4,0.56 0.4,1.12 z m 20.959946,33.2 q 0.48,-0.72 1.2,-1.84 0.8,-1.12 2.08,-3.04 1.28,-1.92 3.2,-4.88 2,-2.96 4.8,-7.36 -0.96,-1.44 -1.2,-2.16 0.08,-0.4 0.8,-0.4 h 1.36 q 0.56,0 0.8,-0.64 0.4,-0.72 1.36,-2.56 1.04,-1.84 2.08,-3.92 1.12,-2.08 1.92,-3.92 0.8,-1.84 0.8,-2.48 0,-0.96 -0.48,-1.2 -0.48,-0.24 -1.52,-0.24 -0.88,0 -2.08,0.08 -1.12,0 -2,0.16 -0.48,0 -0.48,-0.48 0,-0.48 0.64,-0.48 0.96,0 2.32,0 1.44,-0.08 2.96,-0.16 1.6,-0.16 3.12,-0.24 1.6,-0.16 2.88,-0.24 0.8,0 0.24,1.04 -0.8,1.12 -1.76,2.56 -0.88,1.44 -1.68,2.8 -1.2,2.08 -2.64,4.72 -1.44,2.64 -2.56,4.8 -0.24,0.4 -0.32,0.64 0,0.24 0.48,0.24 1.84,0.08 3.36,0.16 1.6,0 2.88,0 0.72,0 2.4,-0.08 1.76,-0.08 3.68,-0.16 2,-0.08 3.84,-0.24 1.84,-0.16 2.88,-0.24 0.4,-0.08 0.72,-0.32 0.32,-0.24 0.48,-0.56 2.4,-4.64 4.48,-8.48 2.08,-3.84 4.24,-7.36 0.4,-0.56 1.04,-0.88 0.8,-0.48 2.4,-1.2 1.6,-0.72 3.36,-1.36 1.76,-0.72 3.28,-1.2 1.52,-0.48 2.24,-0.48 0.16,0 0.56,0.08 0.4,0.08 0.4,0.32 0,0.16 -0.32,0.24 -0.32,0.08 -0.48,0.08 -0.24,0 -0.96,0.16 -0.72,0.08 -1.6,0.4 -0.88,0.24 -1.84,0.72 -0.88,0.4 -1.6,1.04 -1.92,1.6 -3.6,3.84 -1.12,1.6 -2.32,3.44 -1.2,1.84 -2.32,3.76 -1.12,1.92 -2.16,3.84 -1.04,1.92 -1.84,3.6 -2.88,6 -4.16,9.68 -1.28,3.68 -1.28,5.36 0,3.12 3.2,3.12 1.12,0 2.72,-0.56 1.68,-0.56 2.64,-1.2 0.24,0 0.32,0.24 0.08,0.16 -0.24,0.48 -1.6,0.72 -4.08,1.6 -2.48,0.8 -6.08,0.96 -1.36,-0.08 -2,-0.88 -0.64,-0.8 -0.64,-2.08 0,-1.36 0.48,-2.88 0.8,-2.32 1.76,-4.64 1.04,-2.4 1.92,-4.24 0.32,-0.64 0.32,-1.36 0,-1.12 -1.2,-1.52 -1.2,-0.4 -2.32,-0.4 -1.92,0 -4.08,0.08 -2.16,0.08 -4.32,0.24 -2.08,0.16 -4,0.4 -1.92,0.16 -3.28,0.4 -0.48,0.08 -0.8,0.4 -0.32,0.32 -0.64,0.8 -1.84,3.2 -4.08,6.88 -2.16,3.6 -3.6,7.2 -0.16,0.48 -0.32,0.64 -0.16,0.16 -0.8,0.16 -0.72,0 -1.28,0.08 -0.56,0 -1.04,0.16 -0.48,0.16 -1.04,0.4 -0.56,0.24 -1.36,0.72 z m 103.99995,-6.08 q 0.32,-0.16 0.32,0.32 -0.48,0.4 -0.96,1.04 -0.4,0.56 -0.72,1.04 -0.56,1.04 -2.24,1.44 -2,0.48 -4.32,0.88 -2.32,0.32 -4.72,0.64 -2.4,0.32 -4.72,0.48 -2.32,0.16 -4.4,0.16 -3.04,0 -4.96,-0.24 -1.92,-0.16 -3.04,-0.56 -1.04,-0.48 -1.44,-1.04 -0.4,-0.64 -0.4,-1.44 0,-1.44 0.88,-3.04 0.32,-0.56 1.44,-2.48 1.12,-1.92 2.32,-4 1.2,-2.16 2.16,-3.84 0.96,-1.76 0.96,-1.84 0,-0.24 -0.24,-0.32 -0.24,-0.08 -1.12,-0.08 -0.4,0 -0.4,-0.24 0,-0.56 0.96,-0.72 1.84,-0.24 2.72,-1.92 0.32,-0.56 1.36,-2.48 1.12,-1.92 2.24,-4.08 1.2,-2.24 2.08,-4 0.96,-1.84 0.96,-2.16 0,-0.32 -0.48,-0.32 -2.4,0 -4.8,0.16 -2.4,0.16 -4.24,0.64 l -0.16,-0.08 q 0.16,-1.36 0.64,-1.84 2.48,0.16 5.2,0.24 2.8,0.08 5.28,0.08 0.88,0 3.04,-0.08 2.16,-0.08 4.8,-0.16 2.72,-0.08 5.44,-0.16 2.72,-0.08 4.64,-0.08 0.48,0 0.48,0.4 -0.16,0.4 -0.64,1.28 -0.48,0.8 -0.88,1.68 l -0.32,-0.08 q 0,-0.48 -0.24,-0.88 -0.16,-0.4 -0.4,-0.48 -2.48,-0.4 -5.36,-0.56 -2.88,-0.16 -5.76,-0.16 -1.28,0 -1.92,0.8 -2.16,2.88 -4.4,6.56 -2.16,3.6 -4.08,7.04 -0.32,0.72 0.48,0.72 1.12,0.08 2.24,0.08 1.12,0 2.32,0 3.68,0 6.4,-0.16 2.8,-0.24 5.6,-0.88 l 0.24,0.24 q -0.16,0.32 -0.4,0.8 -0.24,0.48 -0.4,0.88 -0.08,0.32 -0.64,0.32 -2.08,-0.08 -4.56,-0.08 -2.4,-0.08 -4.88,-0.08 -1.84,0 -3.6,0 -1.68,0 -3.2,0.08 -0.64,0 -0.88,0.48 -1.36,2.4 -2.8,5.04 -1.36,2.64 -2.4,5.12 -0.8,1.84 -0.8,3.28 0,3.76 5.68,3.76 2,0 4.88,-0.32 2.96,-0.32 6,-0.96 3.04,-0.72 5.76,-1.68 2.8,-0.96 4.4,-2.16 z m 35.43994,-20.88 q -0.16,0.08 -0.32,0.08 -0.16,-0.08 -0.16,-0.24 0.24,-0.64 0.48,-1.52 0.24,-0.96 0.4,-1.68 0,-0.8 0.96,-1.36 2.08,-1.12 4.64,-2.08 2.64,-0.96 5.2,-1.52 4.72,-0.96 9.84,-0.96 6.32,0 9.76,1.44 3.52,1.36 3.52,4.96 0,1.76 -1.2,3.68 -1.12,1.84 -3.2,3.44 -2.08,1.6 -5.12,2.8 -2.96,1.12 -6.56,1.52 -0.72,0.08 -0.48,0.64 1.52,2.8 4.16,7.04 2.72,4.16 6.08,8.88 1.76,2.4 3.92,4.64 2.24,2.24 4.8,3.92 2.56,1.76 5.44,2.8 2.96,1.04 6.08,1.04 4.8,0 9.52,-2.48 0.48,-0.32 0.48,0.16 0,0.32 -0.32,0.4 -2.56,1.36 -5.36,2.16 -2.8,0.88 -6,0.88 -4.56,0 -8,-0.96 -3.44,-0.88 -6.32,-2.8 -2.88,-1.92 -5.52,-4.96 -2.56,-3.04 -5.36,-7.36 -0.8,-1.28 -1.92,-3.12 -1.12,-1.92 -2.32,-3.92 -1.2,-2 -2.32,-3.84 -1.04,-1.92 -1.76,-3.12 0,-0.32 0.24,-0.32 3.6,0 6.56,-0.64 3.04,-0.64 5.2,-1.92 2.24,-1.36 3.44,-3.36 1.28,-2.08 1.28,-4.8 0,-0.96 -0.4,-2 -0.32,-1.12 -1.28,-1.92 -0.88,-0.88 -2.4,-1.44 -1.52,-0.56 -3.84,-0.56 -0.8,0 -1.6,0.24 -0.72,0.16 -1.28,0.8 -0.88,1.04 -2.48,3.52 -1.6,2.4 -3.52,5.6 -1.92,3.2 -4,6.8 -2.08,3.6 -4,7.04 -1.84,3.36 -3.28,6.16 -1.44,2.72 -2.16,4.32 -0.08,0.16 -0.32,0.16 -0.4,-0.08 -0.8,-0.08 -0.4,-0.08 -0.8,-0.08 -0.4,0 -0.96,0 -0.56,0 -1.2,0.16 -0.96,0.56 -1.84,1.52 -0.16,0 -0.4,-0.08 -0.16,-0.08 0,-0.24 7.36,-10.72 12.4,-19.12 5.04,-8.4 8.72,-15.36 0.24,-0.64 0.08,-0.8 -0.08,-0.16 -0.48,-0.16 -2.4,0.16 -4.8,0.96 -2.4,0.8 -4.48,1.92 -1.36,0.8 -2.56,2.16 -1.2,1.36 -2.08,2.96 z m 72.23996,9.12 q 0.08,0.48 1.04,0.72 0.96,0.24 2.24,0.32 1.36,0.08 2.8,0.08 1.44,0 2.4,0 2.56,0 4.16,0.08 1.6,0 2.24,0.16 0.8,0.24 0.88,0.24 0.16,-0.08 0.32,-0.64 0.32,-1.6 0.8,-4.32 0.48,-2.72 0.96,-5.44 0.48,-2.72 0.8,-4.72 0.4,-2.08 0.48,-2.4 0.16,-0.64 0,-0.64 -0.16,-0.08 -0.8,0.4 -0.24,0.16 -1.36,1.12 -1.12,0.88 -2.88,2.32 -1.68,1.44 -3.76,3.2 -2,1.68 -4,3.44 -1.92,1.68 -3.6,3.28 -1.68,1.6 -2.72,2.8 z m -20.64,19.52 q 0.08,-1.44 1.04,-2.56 1.04,-1.2 2.72,-2.8 15.36,-14.32 24.8,-22.56 9.44,-8.32 12.08,-10.16 0.64,-0.4 1.92,-0.72 1.28,-0.32 1.76,-0.8 0.48,-0.48 0.48,-0.08 0.08,0.32 -0.08,0.64 -0.8,1.2 -1.28,2.8 -0.48,1.52 -0.64,2.56 -0.08,0.32 -0.48,2.16 -0.32,1.76 -0.8,4.4 -0.48,2.56 -1.04,5.6 -0.48,2.96 -0.96,5.76 -0.48,2.72 -0.8,4.96 -0.24,2.16 -0.32,3.04 0,1.36 0.24,2.16 0.32,0.72 0.72,1.12 0.4,0.32 0.8,0.4 0.4,0.08 0.64,0.08 0.4,0 0.96,-0.08 0.56,-0.16 1.2,-0.32 0.64,-0.16 0.64,0.08 0.08,0.24 -0.56,0.4 -0.32,0.08 -1.2,0.32 -0.8,0.24 -1.92,0.56 -1.04,0.32 -2.16,0.64 -1.04,0.24 -1.84,0.4 -1.2,0 -1.6,-1.6 0.08,-0.48 0.32,-2 0.24,-1.6 0.48,-3.36 0.32,-1.76 0.56,-3.28 0.24,-1.6 0.24,-2.08 0,-0.88 -0.88,-1.76 -0.8,-0.96 -2.4,-1.36 -0.56,-0.16 -2.16,-0.24 -1.6,-0.08 -3.84,-0.08 -2.32,0 -4.56,0 -2.24,-0.08 -3.36,-0.24 -6.08,5.52 -10.24,10.08 -4.08,4.56 -6.16,7.6 -0.64,1.04 -0.96,1.84 -0.24,0.88 -0.4,2.24 -0.16,0.48 -0.48,0.24 z m 73.03997,17.36 0.24,-0.16 q 0.96,0.48 2.16,0.72 1.2,0.24 2.32,0.24 2.72,0 5.36,-1.52 2.64,-1.44 5.04,-3.76 2.48,-2.32 4.64,-5.36 2.24,-2.96 4.08,-5.92 1.92,-2.96 3.36,-5.68 1.52,-2.8 2.56,-4.72 0,-0.64 -0.48,-0.16 -0.72,0.64 -2.4,1.92 -1.6,1.28 -3.92,2.56 -2.24,1.2 -5.12,2.16 -2.8,0.96 -5.92,0.96 -5.84,0 -8.88,-2.4 -2.96,-2.48 -2.96,-6.72 0,-1.68 0.96,-4.96 0.96,-3.28 3.2,-7.04 2.24,-3.76 5.84,-7.28 3.68,-3.6 9.04,-5.84 3.2,-1.28 6.32,-1.76 3.2,-0.48 5.84,-0.48 1.36,0 2.96,0.16 1.6,0.16 3.12,0.56 1.52,0.32 2.8,0.96 1.28,0.64 2,1.52 -0.32,1.36 -1.04,3.36 -0.64,1.92 -1.28,3.36 l -0.56,0.16 -0.08,-0.24 q 0.16,-0.48 0.24,-0.96 0.08,-0.48 0.08,-1.04 0,-1.44 -0.88,-2.72 -0.8,-1.28 -2.24,-2.24 -1.44,-0.96 -3.36,-1.44 -1.92,-0.56 -4.08,-0.56 -4.08,0 -7.6,1.76 -3.52,1.68 -6.4,4.56 -1.76,1.68 -3.76,4.4 -2,2.64 -3.76,5.76 -1.68,3.04 -2.8,6.16 -1.12,3.12 -1.12,5.76 0,3.2 2.16,4.88 2.16,1.68 6.24,1.68 3.52,0 7.04,-1.44 3.52,-1.52 6.4,-3.68 2.96,-2.24 5.12,-4.88 2.16,-2.72 3.04,-5.12 0.32,-0.8 0.24,-1.2 0,-0.4 -0.88,-0.4 -1.36,0.08 -3.2,0.24 -1.84,0.16 -4,0.32 l -0.24,-0.08 0.24,-0.88 q 1.6,0 3.52,-0.08 2,-0.08 3.92,-0.16 2,-0.16 3.76,-0.4 1.84,-0.32 3.28,-0.64 0.32,0.24 0,0.72 -1.28,0.32 -1.76,0.8 -0.48,0.4 -1.04,1.52 -1.52,2.96 -3.52,6.8 -1.92,3.76 -4.08,7.6 -2.08,3.84 -4.24,7.2 -2.16,3.44 -4.08,5.6 -0.8,0.96 -2.32,2.48 -1.44,1.52 -3.52,2.88 -2.08,1.44 -4.8,2.48 -2.72,1.04 -6.08,1.04 -1.12,0 -2.24,-0.16 -1.12,-0.16 -2.4,-0.64 z m 63.59996,-20 q 0.64,-0.08 1.2,-0.48 0.64,-0.4 1.04,-0.88 0.96,-1.2 2.56,-3.52 1.68,-2.32 3.52,-5.2 1.92,-2.88 3.92,-6.08 2,-3.2 3.76,-6.16 1.76,-3.04 3.04,-5.6 1.36,-2.56 1.84,-4.16 0.16,-0.48 0.16,-0.88 0,-0.88 -2.16,-0.88 -0.96,0 -2.16,0.08 -1.2,0.08 -2.24,0.32 l -0.24,-0.08 q 0.16,-0.64 0.48,-0.96 3.36,-0.16 6.56,-0.32 3.28,-0.24 5.6,-0.64 0.4,0.24 0.4,0.64 0,0.16 -0.48,0.32 -0.64,0.16 -1.04,0.72 -0.4,0.56 -0.8,1.28 -1.68,3.12 -3.84,6.96 -2.08,3.84 -4.48,8 -2.4,4.08 -4.96,8.16 -2.48,4.08 -4.8,7.6 -0.64,0.88 -1.44,1.36 -0.8,0.48 -1.52,0.64 -0.88,0.16 -1.92,0.16 -1.04,0.08 -1.84,0 -0.16,-0.08 -0.16,-0.4 z" />
  </g>
</svg>
